<?xml version="1.0" encoding="utf-8"?>
<!-- Generator: Adobe Illustrator 24.1.3, SVG Export Plug-In . SVG Version: 6.00 Build 0)  -->
<svg version="1.1" id="Layer_1" xmlns="http://www.w3.org/2000/svg" xmlns:xlink="http://www.w3.org/1999/xlink" x="0px" y="0px"
	 viewBox="0 0 18.9 18.9" style="enable-background:new 0 0 18.9 18.9;" xml:space="preserve">
<style type="text/css">
	.st0{display:none;fill:#CE2E2E;}
	.st1{display:none;fill:#EF3333;}
	.st2{display:none;fill:#C66363;}
	.st3{display:none;fill:#ED7474;}
	.st4{display:none;fill:#991919;}
	.st5{display:none;fill:#AD2323;}
	.st6{display:none;fill:#9B2121;}
	.st7{fill:#FF5252;}
	.st8{fill:#421515;}
	.st9{fill:#F47A7A;}
	.st10{fill:#541C1C;}
	.st11{fill:#C12929;}
	.st12{fill:#BF2828;}
	.st13{fill:#301010;}
	.st14{display:none;fill:#6B1515;}
	.st15{display:none;fill:#501515;}
	.st16{display:none;fill:#421515;}
	.st17{fill:#EF3333;}
	.st18{fill:#ED7474;}
	.st19{fill:#AD2323;}
	.st20{display:none;}
	.st21{display:inline;fill:#FF5252;}
	.st22{display:inline;fill:#F47A7A;}
	.st23{display:inline;fill:#C12929;}
	.st24{display:inline;fill:#BF2828;}
</style>
<polygon class="st0" points="6.1,-400.8 -420.6,6.1 -630.5,6.1 "/>
<polygon class="st1" points="6.1,-630.5 -203.9,6.1 -420.6,6.1 "/>
<polygon class="st2" points="6.1,437.4 439.5,6.1 649.5,6.1 "/>
<polygon class="st3" points="6.1,649.5 222.8,6.1 439.5,6.1 "/>
<polygon class="st4" points="6.1,437.4 -420.6,6.1 -630.5,6.1 "/>
<polygon class="st5" points="6.1,649.5 -203.9,6.1 -420.6,6.1 "/>
<polygon class="st6" points="6.1,-400.8 439.5,6.1 649.5,6.1 "/>
<g id="di">
	<path class="st7" d="M6.1-593.2v363.3c0,3.2-2.5,5.8-5.7,6c-50.1,2.6-96.1,20.8-133.3,49.8c-4.7,3.6-11.2-1-9.4-6.6L-5.6-595.1
		C-3.5-601.6,6.1-600,6.1-593.2z"/>
	<path class="st8" d="M6.1-224.1V6.1h-209.9l54.9-166.4C-108.2-198.5-53.8-222.4,6.1-224.1z"/>
	<path class="st9" d="M151.3,218.4L17.7,614.8c-2.2,6.4-11.7,4.9-11.7-1.9l0-357c0-3.3,2.7-6,6-6c0.2,0,0.5,0,0.7,0
		c47.8,0,92.3-14.1,129.5-38.5C147.1,208.3,153.1,213,151.3,218.4z"/>
	<path class="st10" d="M222.8,6.1l-65.6,194.8c-40,30.7-90,49-144.3,49c-2.3,0-4.5,0-6.8-0.1V6.1H222.8z"/>
	<path class="st11" d="M6.1,255.5l0,356.2c0,6.8-9.6,8.4-11.7,1.9l-131.6-403.4c-1.8-5.6,4.6-10.1,9.3-6.7
		c36.2,26.8,80.4,43.5,128.3,46C3.6,249.7,6.1,252.3,6.1,255.5z"/>
	<path class="st10" d="M6.1,6.1v243.7c-57.3-1.6-109.5-23.5-149.6-58.8L-203.9,6.1H6.1z"/>
	<path class="st12" d="M155.5-191.4c2.1,6.1-4.8,11.4-10.1,7.7c-37.8-25.6-83.5-40.5-132.6-40.5l-0.1,0c-3.7,0-6.7-3-6.7-6.7v-363.4
		c0-6.8,9.5-8.4,11.7-1.9L155.5-191.4z"/>
	<path class="st13" d="M222.8,6.1H6.1v-230.2c2.3-0.1,4.5-0.1,6.8-0.1c56.8,0,108.9,19.9,149.7,53.2L222.8,6.1z"/>
</g>
<polygon class="st5" points="6.1,-630.5 222.8,6.1 439.5,6.1 "/>
<rect x="-256.4" y="-256.5" transform="matrix(0.7132 -0.7009 0.7009 0.7132 -3.0474 7.8588)" class="st14" width="528.9" height="528.3"/>
<rect x="-257.3" y="-256.2" transform="matrix(0.9239 -0.3827 0.3827 0.9239 -2.4733 3.3607)" class="st15" width="528.9" height="528.3"/>
<path class="st16" d="M249.9,12.8c0,65.5-26.5,124.7-69.4,167.6c-7.3,7.3-15.1,14.1-23.3,20.4c-40,30.7-90,49-144.3,49
	c-2.3,0-4.5,0-6.8-0.1c-57.3-1.6-109.5-23.5-149.6-58.8c-3.9-3.4-7.6-6.9-11.2-10.5c-42.9-42.9-69.4-102.2-69.4-167.6
	s26.5-124.7,69.4-167.6c1.9-1.9,3.8-3.8,5.8-5.6c40.8-38.2,95.2-62.1,155.1-63.7c2.3-0.1,4.5-0.1,6.8-0.1
	c56.8,0,108.9,19.9,149.7,53.2C215.8-127.5,249.9-61.3,249.9,12.8z"/>
<g id="diamond">
	<polygon class="st7" points="6.1,-163.2 6.1,6.1 -48.1,6.1 	"/>
	<polygon class="st13" points="6.1,-163.2 -109.1,6.1 -163.2,6.1 	"/>
	<polygon class="st17" points="6.1,-163.2 -48.1,6.1 -109.1,6.1 	"/>
	<polygon class="st9" points="6.1,182.1 6.1,6.1 67,6.1 	"/>
	<polygon class="st8" points="6.1,182.1 128,6.1 182.1,6.1 	"/>
	<polygon class="st18" points="6.1,182.1 67,6.1 128,6.1 	"/>
	<polygon class="st11" points="6.1,182.1 6.1,6.1 -48.1,6.1 	"/>
	<polygon class="st8" points="6.1,182.1 -109.1,6.1 -163.2,6.1 	"/>
	<polygon class="st19" points="6.1,182.1 -48.1,6.1 -109.1,6.1 	"/>
	<polygon class="st12" points="6.1,-163.2 6.1,6.1 67,6.1 	"/>
	<polygon class="st10" points="6.1,-163.2 128,6.1 182.1,6.1 	"/>
	<polygon class="st19" points="6.1,-163.2 67,6.1 128,6.1 	"/>
</g>
<image style="display:none;overflow:visible;" width="1280" height="720" xlink:href="../../../../../Downloads/Telegram Desktop/photo_2021-11-27_04-47-15.jpg"  transform="matrix(1 0 0 1 -1832.2142 -883.2484)">
</image>
<g id="di_1_" class="st20">
	<polygon class="st21" points="-214,-331.1 -214,305.5 -423.9,305.5 	"/>
	<polygon class="st22" points="-214,948.9 -214,305.5 2.8,305.5 	"/>
	<polygon class="st23" points="-214,948.9 -214,305.5 -423.9,305.5 	"/>
	<polygon class="st24" points="-214,-331.1 -214,305.5 2.8,305.5 	"/>
</g>
<path class="st16" d="M1391-171c0,65.5-26.5,124.7-69.4,167.6c-7.3,7.3-15.1,14.1-23.3,20.4c-40,30.7-90,49-144.3,49
	c-2.3,0-4.5,0-6.8-0.1c-57.3-1.6-109.4-23.5-149.6-58.8c-3.9-3.4-7.6-6.9-11.2-10.5C943.5-46.3,917-105.5,917-171
	s26.5-124.7,69.4-167.6c1.9-1.9,3.8-3.8,5.8-5.6c40.8-38.2,95.2-62.1,155.1-63.7c2.3-0.1,4.5-0.1,6.8-0.1
	c56.8,0,108.9,19.9,149.7,53.2C1357-311.3,1391-245.1,1391-171z"/>
</svg>
